<?xml version="1.0" encoding="utf-8"?>
<!-- Generator: Adobe Illustrator 17.1.0, SVG Export Plug-In . SVG Version: 6.00 Build 0)  -->
<!DOCTYPE svg PUBLIC "-//W3C//DTD SVG 1.1//EN" "http://www.w3.org/Graphics/SVG/1.1/DTD/svg11.dtd">
<svg version="1.1" id="Laag_1" xmlns="http://www.w3.org/2000/svg" xmlns:xlink="http://www.w3.org/1999/xlink" x="0px" y="0px"
	 viewBox="0 0 75.7 44.4" enable-background="new 0 0 75.7 44.4" xml:space="preserve">
<g>
	<path fill="none" stroke="#FDF6E3" stroke-width="0.8" stroke-linecap="round" stroke-linejoin="round" stroke-miterlimit="10" d="
		M7.3,15.1c0-0.6,1.1-0.1,1.6-0.3C8.8,15.4,7.7,14.9,7.3,15.1z"/>
	<path fill="none" stroke="#FDF6E3" stroke-width="0.8" stroke-linecap="round" stroke-linejoin="round" stroke-miterlimit="10" d="
		M7,15.6c0.1-0.6,1.3-0.1,1.9-0.3C8.7,16,7.5,15.5,7,15.6z"/>
	<path fill="none" stroke="#FDF6E3" stroke-width="0.8" stroke-linecap="round" stroke-linejoin="round" stroke-miterlimit="10" d="
		M6.7,16.7c0.1-0.6,1.3-0.1,1.9-0.3C8.5,17,7.3,16.5,6.7,16.7z"/>
	<path fill="none" stroke="#FDF6E3" stroke-width="0.8" stroke-linecap="round" stroke-linejoin="round" stroke-miterlimit="10" d="
		M6.5,17.2c0.1-0.6,1.3-0.1,1.9-0.3C8.2,17.6,7,17.1,6.5,17.2z"/>
	<path fill="none" stroke="#FDF6E3" stroke-width="0.8" stroke-linecap="round" stroke-linejoin="round" stroke-miterlimit="10" d="
		M8.3,17.5"/>
	<path fill="none" stroke="#FDF6E3" stroke-width="0.8" stroke-linecap="round" stroke-linejoin="round" stroke-miterlimit="10" d="
		M6.2,18.3c0.1-0.6,1.3-0.1,1.9-0.3C7.9,18.6,6.7,18.1,6.2,18.3z"/>
	<path fill="none" stroke="#FDF6E3" stroke-width="0.8" stroke-linecap="round" stroke-linejoin="round" stroke-miterlimit="10" d="
		M8.1,18.6"/>
	<path fill="none" stroke="#FDF6E3" stroke-width="0.8" stroke-linecap="round" stroke-linejoin="round" stroke-miterlimit="10" d="
		M7.8,19.1c0.2,1.1-1.5,0.3-2.1,0.5C5.5,18.6,7.1,19.3,7.8,19.1z"/>
	<path fill="none" stroke="#FDF6E3" stroke-width="0.8" stroke-linecap="round" stroke-linejoin="round" stroke-miterlimit="10" d="
		M7.5,19.9"/>
	<path fill="none" stroke="#FDF6E3" stroke-width="0.8" stroke-linecap="round" stroke-linejoin="round" stroke-miterlimit="10" d="
		M7.5,20.4"/>
	<path fill="none" stroke="#FDF6E3" stroke-width="0.8" stroke-linecap="round" stroke-linejoin="round" stroke-miterlimit="10" d="
		M15.6,35.3c1.5-0.2,3.2,1.2,3.4,1.9c0.9,3.4-2.8,4.9-4.7,3.7C12.9,40,12.7,35.7,15.6,35.3z"/>
	<path fill="none" stroke="#FDF6E3" stroke-width="0.8" stroke-linecap="round" stroke-linejoin="round" stroke-miterlimit="10" d="
		M12.8,37.3c0.3-1.4,1.3-2.4,2.6-2.6c0.1,0,0.3,0,0.4,0c1.6,0,3.4,1.4,3.6,2.3c0.4,1.6,0,3-0.5,3.6c-0.7,0.9-1.9,1.8-3.1,1.8
		c-0.7,0-1.3-0.5-1.9-0.9C13,40.9,12.4,38.8,12.8,37.3z M21.3,40.6c2.9-7.5-8.4-10.8-10.5-3.9C9.3,44.7,19.3,45.8,21.3,40.6z"/>
	<path fill="none" stroke="#FDF6E3" stroke-width="0.8" stroke-linecap="round" stroke-linejoin="round" stroke-miterlimit="10" d="
		M57.7,35.9c1.5-0.2,3.2,1.2,3.4,1.9c1,3.4-2.8,4.9-4.7,3.7C55,40.5,54.7,36.3,57.7,35.9z"/>
	<path fill="none" stroke="#FDF6E3" stroke-width="0.8" stroke-linecap="round" stroke-linejoin="round" stroke-miterlimit="10" d="
		M54.8,37.8c0.3-1.4,1.3-2.4,2.6-2.6c0.1,0,0.3,0,0.4,0c1.6,0,3.4,1.4,3.6,2.3c0.4,1.6,0,2.9-0.5,3.5c-0.7,0.9-1.9,1.8-3.1,1.8h0
		c-0.7,0-1.3-0.5-1.9-0.8C55,41.4,54.5,39.3,54.8,37.8z M63.3,40.7c2.9-7.5-8.4-10.8-10.5-3.9C51.3,44.9,61.3,46,63.3,40.7z"/>
	<path fill="none" stroke="#FDF6E3" stroke-width="0.8" stroke-linecap="round" stroke-linejoin="round" stroke-miterlimit="10" d="
		M8.5,8.2c0,0,3.8-7,7.2-7.3C19,0.6,38.6,0.1,42.8,0.7c1.7,0,6.5,5.5,6.5,5.5s8.4,1,10.2,1c1.8,0,3.7,3.5,3.7,3.5s-5-0.7-29.9-0.6
		C24.7,10.2,7.5,10,7.5,10L8.5,8.2z"/>
	<path fill="none" stroke="#FDF6E3" stroke-width="0.8" stroke-linecap="round" stroke-linejoin="round" stroke-miterlimit="10" d="
		M6.9,12.8L7.5,11c0,0,14.4,0.3,19.4,0.2c4.9-0.1,30.7,0.2,30.7,0.2l6,0.4l1.3,1.7c0,0-0.4-0.7-9-0.5c-5.8,0.2-32.1,0-32.1,0
		L8.7,12.9L6.9,12.8z"/>
	<path fill="none" stroke="#FDF6E3" stroke-width="0.8" stroke-linecap="round" stroke-linejoin="round" stroke-miterlimit="10" d="
		M49.1,32.2c0.1-1.5,0.1-3,0.1-4.1c0-0.5,0-1,0-1.3c0-0.3,0-0.5,0-0.5h-3.6c-0.4,0-4.8-0.2-5.8-0.3c-1-0.1-6.7,0.1-7.8,0.1
		c-0.5,0-2.1,0-3.7-0.1l-0.1,7.9l20.8,0C49,33.5,49.1,32.9,49.1,32.2z"/>
	<path fill="none" stroke="#FDF6E3" stroke-width="0.8" stroke-linecap="round" stroke-linejoin="round" stroke-miterlimit="10" d="
		M9.8,34.2L3.1,34l-0.1-0.3l6.9,0.2L9.8,34.2z M73.7,33.6c0,0,0.3-0.1,0.4-1.1c0.1-1,0.3-4,0.3-4s0.6-1.8-0.4-2.1h-2.6
		c0,0.1,0,0.2,0,0.3c0,0.1,0,0.2,0,0.3c0,0.2,0,0.5,0,0.7c0,0.7-0.1,1.6-0.1,2.5c-0.1,0.8-0.2,1.6-0.2,2.2c-0.1,0.6-0.1,1-0.1,1
		s0,0.1,0,0.1l2.4-0.1v0.3l-2.4,0.2c-0.1,0.6-0.2,1.6-0.4,2.7l0,0.2l0,0.1c0,0,0,0-0.1,0l-0.2,0l-0.3,0c-0.2,0-0.4,0-0.6,0.1
		c-0.4,0-0.8,0.1-1.2,0.1c-0.3,0-0.6,0-0.7,0.1c-0.5,0-0.8,0-1.2-0.1c0.4-0.1,0.7-0.2,1.2-0.2c0.1,0,0.4,0,0.7-0.1
		c0.4,0,0.8-0.1,1.2-0.1c0.2,0,0.4,0,0.6-0.1l0.3,0h0l0-0.1c0.2-1,0.3-2,0.4-2.6l-6.2,0.4l-0.1-0.4l6.4-0.3c0-0.1,0-0.2,0-0.2
		s0-0.4,0.1-1c0.1-0.6,0.2-1.4,0.2-2.2c0.1-0.8,0.1-1.7,0.1-2.4c0-0.3,0-0.5,0-0.7c0-0.1,0-0.2,0-0.3c0-0.1,0-0.2,0-0.3h-0.4
		l-8.7-0.1l-7.6,0.1l-3.6,0.1c0,1.8,0.1,3.9,0.1,4.5c0,0.5,0,0.8-0.1,1.2c-0.1-0.4-0.2-0.7-0.2-1.2c0-0.7-0.1-2.7-0.1-4.5l-1,0
		c0,0,0,0.2,0,0.5c0,0.3,0,0.8,0,1.3c0,1.1,0,2.6-0.1,4.1c0,0.6-0.1,1.3-0.1,1.9l1.9,0l-0.6,0.3h-1.4c-0.1,1.3-0.1,2.5-0.1,3
		c0,0.5-0.1,0.8-0.2,1.2c-0.1-0.4-0.1-0.7-0.1-1.2c0-0.5,0.1-1.7,0.1-3H28.2l0,3.4L28,38.3c0,0,0-1.7,0-3.8h-3.5l-0.1-0.4l3.6,0
		c0-2.8,0-6.3,0-7.9c-1.6,0-3.1-0.1-3.1-0.1L2.1,26.2H1.8c-0.5,2.7,0.7,7.8,1.6,9c-1.4,0.3-1-1.1-1.1-2.1c-1.8,0.2-2.4,3-1.3,4.5
		c3.4,0.8,4.8,0.5,8.6,0.5c0.8-1.4,0.2-4.3,1.7-5.1c1.7-1.3,7.5-1.3,9.4,0.4c1.7,1.3,1.4,4.5,2.9,5.5H51c1.2-1.5,1.1-4.9,3.4-5.9
		c2.8-1.2,6.5-0.9,8.6,0.5c1.5,1,0.8,4.1,1.7,5.8c2.1,0.6,3.5-0.2,5.7-0.3l1.2-0.2l1.7-0.4l0.5-0.9c0,0,0.8-0.5,1.2-1.5
		C75.9,34.1,73.7,33.6,73.7,33.6z"/>
	<path fill="none" stroke="#FDF6E3" stroke-width="0.8" stroke-linecap="round" stroke-linejoin="round" stroke-miterlimit="10" d="
		M64.4,14.9c0.6,0.8,4.3,5.7,4.5,6.1c0.2,0.5-0.1,0.7-1.2,0.8c-1,0-13.2-0.1-13.3-0.1h-1.2c0,0-1.2,0.2-1.3-0.9
		c-0.1-1.1-0.4-4.6-0.4-4.6s-0.3-1.3,0-1.6s1.3-0.3,3.2-0.4c1.9,0,8.5,0.1,8.5,0.1S63.8,14.1,64.4,14.9z M47,21.5
		c-0.7,0-15.9,0-15.9,0s-1.4,0.1-1.5-0.5c-0.1-0.6,0-6.2,0-6.2S29.5,14,31.1,14c1.6,0,15.4,0.2,15.4,0.2s1.2-0.6,1.1,2.1
		c0,2.7,0.1,4.5,0.1,4.5S47.7,21.5,47,21.5z M28.6,20.7c0,0.2,0,0.4,0,0.6l0,0.3c0,0.1,0,0.3-0.1,0.4c-0.2,0.2-0.3,0.3-0.4,0.5
		c-0.1,0.1-0.1,0.1-0.2,0.2c0,0-0.1,0.1,0,0.1c0,0,0,0,0,0c0,0,0,0,0,0.1c0,0.4,0,0.6,0,0.8c0,0.5,0,0.8-0.1,1.2
		c-0.1-0.4-0.2-0.7-0.2-1.2c0-0.1,0-0.4,0-0.8l0-0.1c0,0,0-0.1,0-0.1c0-0.1,0.1-0.1,0.1-0.2c0.1-0.1,0.1-0.2,0.2-0.2
		c0.1-0.1,0.3-0.3,0.4-0.4c0.1,0,0-0.1,0.1-0.2l0-0.3c0-0.2,0-0.4,0-0.6c0-0.8,0-1.4,0-1.4s0-0.7,0-1.6c0-0.9,0-1.9,0-2.6
		c0-0.3,0-0.4,0-0.5c0-0.5,0.1-0.8,0.2-1.2c0.1,0.4,0.1,0.7,0.1,1.2c0,0.1,0,0.2,0,0.5c0,0.6,0,1.6,0,2.5c0,0.9,0,1.6,0,1.6
		S28.6,19.9,28.6,20.7z M24,21.5c-3.4,0-12.6,0-12.6,0s-0.9-0.2-0.9-0.8c0-0.6,1.9-6.2,1.9-6.2s0.8-0.8,2-0.6
		c1.2,0.2,10.4,0.1,10.4,0.1s2.7-0.5,2.7,0.9c0,1.5-0.3,6-0.3,6S27.4,21.5,24,21.5z M7.5,21.2c-0.9-0.1-2.2,0.2-2.7-0.3
		c0.2-2.1,1.2-3.2,1.6-5.1c0.4,0.4,1.4,0.2,2.1,0.3c-0.1-0.6-1.3-0.1-1.9-0.3c-0.4-1.6,1.6-2,2.7-1.3C8.6,16.6,8.5,19.3,7.5,21.2z
		 M74,25c-0.6-2.4-2.7-4.2-4.5-6.1c-1.4-1.5-3.6-5.1-5.3-5.3c-1.9-0.3-3.7-0.2-5.4-0.2c-15.3,0-36.4,0.2-52-0.1
		C5.1,17,2.8,20.4,1.9,24.7C4,25.7,6.8,25,9.3,25h23.3h0.3h12.8h2.1h1.4c0-0.1,0-0.2,0-0.4c0-0.1,0-0.3,0-0.4c0-0.2,0-0.3,0-0.4
		c0-0.3-0.1-0.6-0.1-1c0-0.2,0-0.4,0-0.5c0-0.1,0-0.3,0-0.3c0-0.1,0-0.1,0-0.2c0-0.4,0-0.7,0-1.1c0-0.8-0.1-1.5-0.1-2.3
		c-0.1-0.8-0.1-1.5-0.1-2.2c0-0.4,0-0.8,0-1.2c0-0.1,0-0.2,0-0.3c0-0.5,0.1-0.8,0.2-1.2c0.1,0.4,0.1,0.7,0.1,1.2c0,0.3,0,0.8,0,1.5
		c0,0.7,0,1.4,0.1,2.2c0,0.8,0.1,1.5,0.1,2.3c0,0.4,0,0.8,0,1.1c0,0.1,0,0.2,0,0.3c0,0,0,0.1,0,0.1c0,0,0,0,0,0c0,0,0,0.1,0,0.1
		c0,0.2,0,0.3,0,0.5c0,0.3,0.1,0.7,0.1,1c0,0.1,0,0.3,0,0.5c0,0.1,0,0.3,0,0.4c0,0.1,0,0.3,0,0.4h1c0-1.1,0-1.9,0-1.9
		s-0.1-6.9-0.2-8.2c0-0.5,0-0.8,0.1-1.2c0.1,0.4,0.2,0.7,0.2,1.2c0,1.4,0.2,8.2,0.2,8.2s0,0.8,0,1.9h20.4c-1-5.2-5-7.5-7.5-11.2
		c3.2,3.2,6.5,6.4,8,11.2H74z"/>
</g>
</svg>
